<svg xmlns="http://www.w3.org/2000/svg" width="24" height="24" fill="none" viewBox="0 0 24 24">
  <mask id="a" width="24" height="24" x="0" y="0" maskUnits="userSpaceOnUse" style="mask-type:alpha">
    <path fill="#D9D9D9" d="M0 0h24v24H0z"/>
  </mask>
  <g mask="url(#a)">
    <path fill="#fff" d="m9.55 12 7.35 7.35c.25.25.371.541.363.875a1.246 1.246 0 0 1-.388.875 1.2 1.2 0 0 1-.875.375 1.2 1.2 0 0 1-.875-.375l-7.7-7.675c-.2-.2-.35-.425-.45-.675-.1-.25-.15-.5-.15-.75s.05-.5.15-.75c.1-.25.25-.475.45-.675l7.7-7.7c.25-.25.546-.371.888-.363.341.008.637.138.887.388s.375.541.375.875a1.2 1.2 0 0 1-.375.875L9.55 12Z"/>
  </g>
</svg>
