<svg width="24" height="24" viewBox="0 0 24 24" fill="none" xmlns="http://www.w3.org/2000/svg">
<mask id="mask0_216_36" style="mask-type:alpha" maskUnits="userSpaceOnUse" x="0" y="0" width="24" height="24">
<rect width="24" height="24" fill="#D9D9D9"/>
</mask>
<g mask="url(#mask0_216_36)">
<path d="M9.60766 12.0061L16.6411 18.9829C16.8804 19.2202 16.996 19.4971 16.988 19.8135C16.9801 20.1299 16.8565 20.4067 16.6172 20.644C16.378 20.8813 16.0989 21 15.7799 21C15.4609 21 15.1818 20.8813 14.9426 20.644L7.57416 13.3588C7.38278 13.1689 7.23923 12.9553 7.14354 12.718C7.04785 12.4807 7 12.2434 7 12.0061C7 11.7688 7.04785 11.5315 7.14354 11.2942C7.23923 11.0569 7.38278 10.8433 7.57416 10.6535L14.9426 3.34448C15.1818 3.10717 15.4649 2.99247 15.7919 3.00038C16.1188 3.00829 16.4019 3.1309 16.6411 3.36821C16.8804 3.60551 17 3.88237 17 4.19878C17 4.51518 16.8804 4.79204 16.6411 5.02934L9.60766 12.0061Z" fill="white"/>
</g>
</svg>
