<svg xmlns="http://www.w3.org/2000/svg" width="24" height="24" fill="none" viewBox="0 0 24 24">
  <mask id="a" width="24" height="24" x="0" y="0" maskUnits="userSpaceOnUse" style="mask-type:alpha">
    <path fill="#D9D9D9" d="M0 0h24v24H0z"/>
  </mask>
  <g mask="url(#a)">
    <path fill="#fff" d="M15.175 8.325a4.49 4.49 0 0 1 1.063 1.65c.224.616.304 1.25.237 1.9 0 .25-.092.462-.275.637a.91.91 0 0 1-.65.263.868.868 0 0 1-.638-.263.868.868 0 0 1-.262-.637c.083-.434.058-.85-.075-1.25A2.58 2.58 0 0 0 13.95 9.6a2.836 2.836 0 0 0-1.025-.65c-.4-.15-.825-.184-1.275-.1a.848.848 0 0 1-.638-.275.91.91 0 0 1-.262-.65c0-.25.088-.463.262-.638a.868.868 0 0 1 .638-.262 4.14 4.14 0 0 1 1.875.237 4.49 4.49 0 0 1 1.65 1.063ZM12 6c-.317 0-.625.012-.925.037-.3.025-.6.07-.9.138a1.08 1.08 0 0 1-.763-.125 1.024 1.024 0 0 1-.462-.6.942.942 0 0 1 .088-.775.86.86 0 0 1 .612-.45 8.9 8.9 0 0 1 1.162-.175A14 14 0 0 1 12 4c2.283 0 4.37.6 6.262 1.8C20.154 7 21.6 8.616 22.6 10.65a1.88 1.88 0 0 1 .2.85c0 .15-.012.295-.038.437a1.5 1.5 0 0 1-.137.413c-.3.666-.67 1.291-1.113 1.875a11.62 11.62 0 0 1-1.462 1.6.838.838 0 0 1-.7.225.913.913 0 0 1-.65-.4 1.103 1.103 0 0 1-.212-.763 1.02 1.02 0 0 1 .337-.687c.4-.384.767-.8 1.1-1.25a9.11 9.11 0 0 0 .875-1.45 9.773 9.773 0 0 0-3.613-4.013A9.545 9.545 0 0 0 12 6Zm0 13c-2.233 0-4.275-.605-6.125-1.813A12.995 12.995 0 0 1 1.5 12.425a1.578 1.578 0 0 1-.188-.438 1.907 1.907 0 0 1-.062-.487c0-.167.017-.325.05-.475.033-.15.092-.3.175-.45.333-.667.72-1.305 1.163-1.913C3.079 8.054 3.583 7.5 4.15 7L2.075 4.9a.973.973 0 0 1-.263-.713A.977.977 0 0 1 2.1 3.5a.948.948 0 0 1 .7-.275c.283 0 .517.091.7.275l17 17c.183.183.28.412.288.687a.93.93 0 0 1-.288.713.948.948 0 0 1-.7.275.948.948 0 0 1-.7-.275l-3.5-3.45A11.92 11.92 0 0 1 12 19ZM5.55 8.4a10.72 10.72 0 0 0-1.325 1.425A9.015 9.015 0 0 0 3.2 11.5a9.773 9.773 0 0 0 3.612 4.012A9.544 9.544 0 0 0 12 17c.333 0 .658-.021.975-.063.317-.042.642-.087.975-.137l-.9-.95a4.55 4.55 0 0 1-.525.112A3.539 3.539 0 0 1 12 16c-1.25 0-2.313-.438-3.188-1.313C7.939 13.812 7.5 12.75 7.5 11.5a3.666 3.666 0 0 1 .15-1.05L5.55 8.4Z"/>
  </g>
</svg>
