<svg xmlns="http://www.w3.org/2000/svg" width="24" height="24" fill="none" viewBox="0 0 24 24">
  <mask id="a" width="24" height="24" x="0" y="0" maskUnits="userSpaceOnUse" style="mask-type:alpha">
    <path fill="#D9D9D9" d="M0 0h24v24H0z"/>
  </mask>
  <g mask="url(#a)">
    <path fill="#fff" d="m14.475 12-7.35-7.35a1.17 1.17 0 0 1-.363-.888 1.26 1.26 0 0 1 .388-.887c.25-.25.545-.375.887-.375.342 0 .638.125.888.375l7.675 7.7c.2.2.35.425.45.675.1.25.15.5.15.75s-.05.5-.15.75c-.1.25-.25.475-.45.675l-7.7 7.7c-.25.25-.542.37-.875.363a1.246 1.246 0 0 1-.875-.388 1.213 1.213 0 0 1-.375-.888c0-.341.125-.637.375-.887L14.475 12Z"/>
  </g>
</svg>
