<svg width="24" height="24" viewBox="0 0 24 24" fill="none" xmlns="http://www.w3.org/2000/svg">
<path d="M7 16V8C7 7.44772 7.44772 7 8 7H9C9.55228 7 10 7.44772 10 8V16C10 16.5523 9.55228 17 9 17H8C7.44772 17 7 16.5523 7 16Z" stroke="#FFD700" stroke-width="2" stroke-linecap="round" stroke-linejoin="round"/>
<path d="M14 16V8C14 7.44772 14.4477 7 15 7H16C16.5523 7 17 7.44772 17 8V16C17 16.5523 16.5523 17 16 17H15C14.4477 17 14 16.5523 14 16Z" stroke="#FFD700" stroke-width="2" stroke-linecap="round" stroke-linejoin="round"/>
</svg>
