<svg xmlns="http://www.w3.org/2000/svg" width="24" height="24" fill="none" viewBox="0 0 24 24">
  <mask id="a" width="24" height="24" x="0" y="0" maskUnits="userSpaceOnUse" style="mask-type:alpha">
    <path fill="#D9D9D9" d="M0 0h24v24H0z"/>
  </mask>
  <g mask="url(#a)">
    <path fill="#fff" d="M18.5 17.8v-2.3a.48.48 0 0 0-.15-.35.48.48 0 0 0-.7 0 .48.48 0 0 0-.15.35v2.3c0 .133.025.258.075.375.05.117.125.225.225.325l1.525 1.525a.48.48 0 0 0 .7 0 .48.48 0 0 0 0-.7L18.5 17.8ZM5 21c-.55 0-1.02-.196-1.413-.587A1.926 1.926 0 0 1 3 19V5c0-.55.196-1.02.587-1.413A1.926 1.926 0 0 1 5 3h14c.55 0 1.02.196 1.413.587.39.393.587.863.587 1.413v5a.97.97 0 0 1-.288.713A.968.968 0 0 1 20 11a.968.968 0 0 1-.712-.287A.968.968 0 0 1 19 10V5H5v14h5a.97.97 0 0 1 .713.288c.191.191.287.429.287.712s-.096.52-.287.712A.968.968 0 0 1 10 21H5Zm0-2V5v6.075V11v8Zm2-3c0 .283.096.52.287.712.192.192.43.288.713.288h2.075a.97.97 0 0 0 .713-.288.968.968 0 0 0 .287-.712.968.968 0 0 0-.287-.713.968.968 0 0 0-.713-.287H8a.967.967 0 0 0-.713.287A.968.968 0 0 0 7 16Zm0-4c0 .283.096.52.287.713.192.191.43.287.713.287h5c.283 0 .52-.096.713-.287A.968.968 0 0 0 14 12a.968.968 0 0 0-.287-.713A.968.968 0 0 0 13 11H8a.967.967 0 0 0-.713.287A.968.968 0 0 0 7 12Zm0-4c0 .283.096.52.287.713.192.191.43.287.713.287h8a.97.97 0 0 0 .712-.287A.967.967 0 0 0 17 8a.967.967 0 0 0-.288-.713A.968.968 0 0 0 16 7H8a.968.968 0 0 0-.713.287A.968.968 0 0 0 7 8Zm11 15c-1.383 0-2.563-.488-3.537-1.462C13.488 20.562 13 19.383 13 18s.488-2.563 1.463-3.537C15.438 13.488 16.617 13 18 13s2.563.488 3.538 1.463C22.512 15.438 23 16.617 23 18s-.488 2.563-1.462 3.538C20.562 22.512 19.383 23 18 23Z"/>
  </g>
</svg>
