<svg width="24" height="24" viewBox="0 0 24 24" fill="none" xmlns="http://www.w3.org/2000/svg">
<g clip-path="url(#clip0_430_40)">
<mask id="mask0_430_40" style="mask-type:alpha" maskUnits="userSpaceOnUse" x="0" y="0" width="24" height="24">
<path d="M0 0H24V24H0V0Z" fill="#D9D9D9"/>
</mask>
<g mask="url(#mask0_430_40)">
<path d="M18.5002 17.8002V15.5002C18.5004 15.4347 18.4872 15.3699 18.4614 15.3097C18.4356 15.2495 18.3978 15.1952 18.3502 15.1502C18.3053 15.1024 18.2511 15.0643 18.1909 15.0382C18.1307 15.0121 18.0658 14.9987 18.0002 14.9987C17.9346 14.9987 17.8697 15.0121 17.8095 15.0382C17.7493 15.0643 17.6951 15.1024 17.6502 15.1502C17.6027 15.1952 17.5648 15.2495 17.539 15.3097C17.5132 15.3699 17.5 15.4347 17.5002 15.5002V17.8002C17.5002 17.9332 17.5252 18.0582 17.5752 18.1752C17.6252 18.2922 17.7002 18.4002 17.8002 18.5002L19.3252 20.0252C19.3701 20.073 19.4243 20.1112 19.4845 20.1372C19.5447 20.1633 19.6096 20.1767 19.6752 20.1767C19.7408 20.1767 19.8057 20.1633 19.8659 20.1372C19.9261 20.1112 19.9803 20.073 20.0252 20.0252C20.073 19.9803 20.1112 19.9261 20.1372 19.8659C20.1633 19.8057 20.1767 19.7408 20.1767 19.6752C20.1767 19.6096 20.1633 19.5447 20.1372 19.4845C20.1112 19.4243 20.073 19.3701 20.0252 19.3252L18.5002 17.8002ZM5.00021 21.0002C4.45021 21.0002 3.98021 20.8042 3.58721 20.4132C3.39802 20.2303 3.24833 20.0105 3.14737 19.7675C3.04641 19.5245 2.99633 19.2633 3.00021 19.0002V5.00021C3.00021 4.45021 3.19621 3.98021 3.58721 3.58721C3.77014 3.39802 3.98989 3.24833 4.23292 3.14737C4.47594 3.04641 4.73708 2.99633 5.00021 3.00021H19.0002C19.5502 3.00021 20.0202 3.19621 20.4132 3.58721C20.8032 3.98021 21.0002 4.45021 21.0002 5.00021V10.0002C21.0033 10.1324 20.9794 10.2639 20.9299 10.3865C20.8804 10.5091 20.8063 10.6203 20.7122 10.7132C20.6194 10.8071 20.5083 10.881 20.3859 10.9303C20.2634 10.9797 20.1322 11.0035 20.0002 11.0002C19.8682 11.0035 19.737 10.9797 19.6145 10.9303C19.4921 10.881 19.381 10.8071 19.2882 10.7132C19.194 10.6203 19.1199 10.5092 19.0704 10.3865C19.0208 10.2639 18.997 10.1324 19.0002 10.0002V5.00021H5.00021V19.0002H10.0002C10.1324 18.9971 10.2639 19.021 10.3865 19.0705C10.5091 19.1201 10.6203 19.1941 10.7132 19.2882C10.9042 19.4792 11.0002 19.7172 11.0002 20.0002C11.0002 20.2832 10.9042 20.5202 10.7132 20.7122C10.6203 20.8064 10.5092 20.8805 10.3865 20.93C10.2639 20.9796 10.1324 21.0035 10.0002 21.0002H5.00021ZM5.00021 19.0002V5.00021V11.0752V11.0002V19.0002ZM7.00021 16.0002C7.00021 16.2832 7.09621 16.5202 7.28721 16.7122C7.47921 16.9042 7.71721 17.0002 8.00021 17.0002H10.0752C10.2074 17.0033 10.3389 16.9794 10.4615 16.9299C10.5841 16.8804 10.6953 16.8063 10.7882 16.7122C10.8821 16.6194 10.956 16.5083 11.0053 16.3859C11.0547 16.2634 11.0785 16.1322 11.0752 16.0002C11.0786 15.8681 11.0549 15.7366 11.0055 15.614C10.9561 15.4914 10.8822 15.3802 10.7882 15.2872C10.6953 15.1932 10.584 15.1193 10.4614 15.0699C10.3388 15.0206 10.2074 14.9968 10.0752 15.0002H8.00021C7.86806 14.9968 7.7366 15.0205 7.61397 15.0698C7.49134 15.1192 7.38013 15.1932 7.28721 15.2872C7.19322 15.3802 7.11927 15.4914 7.06991 15.614C7.02055 15.7366 6.99683 15.8681 7.00021 16.0002ZM7.00021 12.0002C7.00021 12.2832 7.09621 12.5202 7.28721 12.7132C7.47921 12.9042 7.71721 13.0002 8.00021 13.0002H13.0002C13.2832 13.0002 13.5202 12.9042 13.7132 12.7132C13.8072 12.6203 13.8811 12.509 13.9305 12.3864C13.9799 12.2638 14.0036 12.1324 14.0002 12.0002C14.0036 11.8681 13.9799 11.7366 13.9305 11.614C13.8811 11.4914 13.8072 11.3802 13.7132 11.2872C13.6203 11.1932 13.509 11.1193 13.3864 11.0699C13.2638 11.0206 13.1324 10.9968 13.0002 11.0002H8.00021C7.86806 10.9968 7.7366 11.0205 7.61397 11.0698C7.49134 11.1192 7.38013 11.1932 7.28721 11.2872C7.19322 11.3802 7.11927 11.4914 7.06991 11.614C7.02055 11.7366 6.99683 11.8681 7.00021 12.0002ZM7.00021 8.00021C7.00021 8.28321 7.09621 8.52021 7.28721 8.71321C7.47921 8.90421 7.71721 9.00021 8.00021 9.00021H16.0002C16.1322 9.00333 16.2634 8.97949 16.3858 8.93014C16.5082 8.88079 16.6193 8.80698 16.7122 8.71321C16.8064 8.62038 16.8806 8.50921 16.9301 8.38657C16.9797 8.26393 17.0035 8.13243 17.0002 8.00021C17.0035 7.86799 16.9797 7.73649 16.9301 7.61385C16.8806 7.49121 16.8064 7.38004 16.7122 7.28721C16.6194 7.19335 16.5083 7.11947 16.3859 7.07011C16.2634 7.02076 16.1322 6.99697 16.0002 7.00021H8.00021C7.86807 6.99683 7.73663 7.02055 7.614 7.06991C7.49138 7.11927 7.38016 7.19322 7.28721 7.28721C7.19322 7.38016 7.11927 7.49138 7.06991 7.614C7.02055 7.73663 6.99683 7.86807 7.00021 8.00021ZM18.0002 23.0002C16.6172 23.0002 15.4372 22.5122 14.4632 21.5382C13.4882 20.5622 13.0002 19.3832 13.0002 18.0002C13.0002 16.6172 13.4882 15.4372 14.4632 14.4632C15.4382 13.4882 16.6172 13.0002 18.0002 13.0002C19.3832 13.0002 20.5632 13.4882 21.5382 14.4632C22.5122 15.4382 23.0002 16.6172 23.0002 18.0002C23.0002 19.3832 22.5122 20.5632 21.5382 21.5382C20.5622 22.5122 19.3832 23.0002 18.0002 23.0002Z" fill="white"/>
</g>
</g>
<defs>
<clipPath id="clip0_430_40">
<rect width="24" height="24" fill="white"/>
</clipPath>
</defs>
</svg>
