<svg width="24" height="24" viewBox="0 0 24 24" fill="none" xmlns="http://www.w3.org/2000/svg">
<g clip-path="url(#clip0_430_75)">
<mask id="mask0_430_75" style="mask-type:alpha" maskUnits="userSpaceOnUse" x="0" y="0" width="24" height="24">
<path d="M0 0H24V24H0V0Z" fill="#D9D9D9"/>
</mask>
<g mask="url(#mask0_430_75)">
<path d="M9.91206 4.56614C10.1154 3.65106 10.927 3 11.8644 3H12.6558C13.5932 3 14.4048 3.65106 14.6081 4.56614L14.8111 5.47935C15.4722 5.73819 16.0843 6.09467 16.6298 6.53105L17.524 6.24961C18.4181 5.96818 19.3878 6.34554 19.8565 7.15735L20.2521 7.84264C20.7208 8.65445 20.5628 9.68287 19.872 10.3165L19.1818 10.9496C19.2334 11.2922 19.2601 11.643 19.2601 12C19.2601 12.357 19.2334 12.7078 19.1818 13.0504L19.872 13.6835C20.5628 14.3171 20.7209 15.3455 20.2522 16.1574L19.8565 16.8426C19.3878 17.6545 18.4181 18.0318 17.524 17.7504L16.6298 17.4689C16.0843 17.9053 15.4722 18.2618 14.8111 18.5206L14.6081 19.4339C14.4048 20.3489 13.5932 21 12.6558 21H11.8644C10.927 21 10.1154 20.3489 9.91206 19.4339L9.70912 18.5206C9.04799 18.2618 8.43583 17.9053 7.89037 17.4689L6.99618 17.7504C6.10202 18.0318 5.13237 17.6545 4.66367 16.8426L4.26802 16.1573C3.79932 15.3455 3.95734 14.3171 4.64815 13.6835L5.33837 13.0504C5.28681 12.7077 5.26009 12.357 5.26009 12C5.26009 11.643 5.28681 11.2922 5.33837 10.9496L4.64816 10.3165C3.95736 9.68288 3.79933 8.65446 4.26803 7.84265L4.66369 7.15735C5.13239 6.34554 6.10204 5.96818 6.99619 6.24962L7.89038 6.53106C8.43583 6.09467 9.04799 5.73819 9.70912 5.47935L9.91206 4.56614Z" stroke="white" stroke-width="2" stroke-linecap="round" stroke-linejoin="round"/>
<path d="M13.2601 12C13.2601 12.5523 12.8124 13 12.2601 13C11.7078 13 11.2601 12.5523 11.2601 12C11.2601 11.4477 11.7078 11 12.2601 11C12.8124 11 13.2601 11.4477 13.2601 12Z" stroke="white" stroke-width="2" stroke-linecap="round" stroke-linejoin="round"/>
</g>
</g>
<defs>
<clipPath id="clip0_430_75">
<rect width="24" height="24" fill="white"/>
</clipPath>
</defs>
</svg>
