<svg xmlns="http://www.w3.org/2000/svg" width="24" height="24" fill="none" viewBox="0 0 24 24">
  <mask id="a" width="24" height="24" x="0" y="0" maskUnits="userSpaceOnUse" style="mask-type:alpha">
    <path fill="#D9D9D9" d="M0 0h24v24H0z"/>
  </mask>
  <g mask="url(#a)">
    <path fill="#fff" d="m7.625 6.4 2.8-3.625c.2-.267.438-.462.712-.587a2.064 2.064 0 0 1 1.726 0c.274.124.512.32.712.587l2.8 3.625 4.25 1.425c.433.133.775.38 1.025.737.25.359.375.755.375 1.188 0 .2-.03.4-.087.6-.059.2-.155.392-.288.575l-2.75 3.9.1 4.1a1.921 1.921 0 0 1-.575 1.475c-.4.4-.867.6-1.4.6-.033 0-.217-.025-.55-.075L12 19.675l-4.475 1.25a.949.949 0 0 1-.275.063c-.1.008-.192.012-.275.012-.533 0-1-.2-1.4-.6-.4-.4-.592-.892-.575-1.475l.1-4.125-2.725-3.875a1.861 1.861 0 0 1-.288-.575c-.058-.2-.087-.4-.087-.6 0-.417.12-.804.362-1.162.242-.359.58-.613 1.013-.763L7.625 6.4ZM8.85 8.125 4 9.725 7.1 14.2 7 18.975l5-1.375 5 1.4-.1-4.8L20 9.775l-4.85-1.65L12 4 8.85 8.125Z"/>
  </g>
</svg>
