<svg width="24" height="24" viewBox="0 0 24 24" fill="none" xmlns="http://www.w3.org/2000/svg">
<path d="M9.65227 4.56614C9.85562 3.65106 10.6672 3 11.6046 3H12.396C13.3334 3 14.145 3.65106 14.3483 4.56614L14.5513 5.47935C15.2124 5.73819 15.8245 6.09467 16.37 6.53105L17.2642 6.24961C18.1583 5.96818 19.128 6.34554 19.5967 7.15735L19.9923 7.84264C20.461 8.65445 20.303 9.68287 19.6122 10.3165L18.922 10.9496C18.9736 11.2922 19.0003 11.643 19.0003 12C19.0003 12.357 18.9736 12.7078 18.922 13.0504L19.6122 13.6835C20.303 14.3171 20.4611 15.3455 19.9924 16.1574L19.5967 16.8426C19.128 17.6545 18.1583 18.0318 17.2642 17.7504L16.37 17.4689C15.8245 17.9053 15.2124 18.2618 14.5513 18.5206L14.3483 19.4339C14.145 20.3489 13.3334 21 12.396 21H11.6046C10.6672 21 9.85562 20.3489 9.65227 19.4339L9.44933 18.5206C8.7882 18.2618 8.17604 17.9053 7.63058 17.4689L6.73639 17.7504C5.84223 18.0318 4.87258 17.6545 4.40388 16.8426L4.00823 16.1573C3.53953 15.3455 3.69755 14.3171 4.38836 13.6835L5.07858 13.0504C5.02702 12.7077 5.0003 12.357 5.0003 12C5.0003 11.643 5.02702 11.2922 5.07858 10.9496L4.38837 10.3165C3.69757 9.68288 3.53954 8.65446 4.00824 7.84265L4.4039 7.15735C4.8726 6.34554 5.84225 5.96818 6.7364 6.24962L7.63059 6.53106C8.17604 6.09467 8.7882 5.73819 9.44933 5.47935L9.65227 4.56614Z" stroke="white" stroke-width="2" stroke-linecap="round" stroke-linejoin="round"/>
<path d="M13.0003 12C13.0003 12.5523 12.5526 13 12.0003 13C11.448 13 11.0003 12.5523 11.0003 12C11.0003 11.4477 11.448 11 12.0003 11C12.5526 11 13.0003 11.4477 13.0003 12Z" stroke="white" stroke-width="2" stroke-linecap="round" stroke-linejoin="round"/>
</svg>
