<svg xmlns="http://www.w3.org/2000/svg" width="24" height="24" fill="none" viewBox="0 0 24 24">
  <mask id="a" width="24" height="24" x="0" y="0" maskUnits="userSpaceOnUse" style="mask-type:alpha">
    <path fill="#D9D9D9" d="M0 0h24v24H0z"/>
  </mask>
  <g mask="url(#a)">
    <path fill="#fff" d="M18.23 19.583V5.417c0-.402.133-.738.399-1.01.265-.271.594-.407.986-.407.393 0 .722.136.987.407.265.272.398.608.398 1.01v14.166c0 .402-.133.738-.398 1.01a1.324 1.324 0 0 1-.987.407c-.392 0-.72-.136-.986-.407a1.388 1.388 0 0 1-.398-1.01ZM3 18.343V6.657c0-.425.138-.767.415-1.027.277-.26.6-.39.97-.39.115 0 .242.012.38.036a.808.808 0 0 1 .381.177l8.585 5.88a1.4 1.4 0 0 1 .467.513c.104.2.156.419.156.655 0 .236-.052.454-.156.655a1.4 1.4 0 0 1-.467.514l-8.585 5.879a.808.808 0 0 1-.38.177 2.28 2.28 0 0 1-.381.035c-.37 0-.693-.13-.97-.39C3.138 19.112 3 18.77 3 18.345Zm2.77-2.655 4.707-3.188-4.708-3.188v6.376Z"/>
  </g>
</svg>
