<svg xmlns="http://www.w3.org/2000/svg" width="24" height="24" fill="none" viewBox="0 0 24 24">
  <mask id="a" width="24" height="24" x="0" y="0" maskUnits="userSpaceOnUse" style="mask-type:alpha">
    <path fill="#D9D9D9" d="M0 0h24v24H0z"/>
  </mask>
  <g mask="url(#a)">
    <path fill="#fff" d="M7.05 8.45 4.2 11.3a.977.977 0 0 1-.688.287.93.93 0 0 1-.712-.287.977.977 0 0 1-.287-.688.973.973 0 0 1 .262-.712l.725-.75-.7-.7a.96.96 0 0 1-.3-.7c0-.267.1-.5.3-.7l1.4-1.4-.725-.75a.933.933 0 0 1-.275-.688c0-.274.1-.512.3-.712a.977.977 0 0 1 .688-.288.973.973 0 0 1 .712.263l.75.725 1.4-1.4c.2-.2.433-.3.7-.3.267 0 .5.1.7.3l.7.7.75-.725a.933.933 0 0 1 .688-.275c.275 0 .512.1.712.3a.948.948 0 0 1 .275.7.948.948 0 0 1-.275.7L8.45 7.05l8.5 8.5 2.85-2.85a.977.977 0 0 1 .688-.287.93.93 0 0 1 .712.287c.183.183.28.413.288.688a.973.973 0 0 1-.263.712l-.725.75.7.7c.2.2.3.433.3.7 0 .267-.1.5-.3.7l-1.4 1.4.725.75a.933.933 0 0 1 .275.688c0 .274-.1.512-.3.712a.977.977 0 0 1-.688.288.973.973 0 0 1-.712-.263l-.75-.725-1.4 1.4c-.2.2-.433.3-.7.3a.96.96 0 0 1-.7-.3l-.7-.7-.75.725a.933.933 0 0 1-.688.275.973.973 0 0 1-.712-.3.948.948 0 0 1-.275-.7.95.95 0 0 1 .275-.7l2.85-2.85-8.5-8.5Z"/>
  </g>
</svg>
