<svg xmlns="http://www.w3.org/2000/svg" width="24" height="24" fill="none" viewBox="0 0 24 24">
  <mask id="a" width="24" height="24" x="0" y="0" maskUnits="userSpaceOnUse" style="mask-type:alpha">
    <path fill="#D9D9D9" d="M0 0h24v24H0z"/>
  </mask>
  <g mask="url(#a)">
    <path fill="#fff" d="m15.075 18.95-.85 2.425a.926.926 0 0 1-.35.45.938.938 0 0 1-.55.175.974.974 0 0 1-.813-.413c-.208-.274-.245-.579-.112-.912l3.8-10.05c.083-.183.208-.333.375-.45a.938.938 0 0 1 .55-.175h.75c.2 0 .383.058.55.175.167.117.292.267.375.45L22.6 20.7c.133.317.1.613-.1.887a.941.941 0 0 1-.8.413.922.922 0 0 1-.563-.175 1.1 1.1 0 0 1-.362-.475l-.85-2.4h-4.85ZM9.05 13.975 4.7 18.3a.977.977 0 0 1-.688.287.93.93 0 0 1-.712-.287.948.948 0 0 1-.275-.7.95.95 0 0 1 .275-.7l4.35-4.35a11.562 11.562 0 0 1-1.588-2C5.588 9.8 5.15 8.95 4.75 8h2.1c.333.65.667 1.217 1 1.7.333.483.733.967 1.2 1.45.55-.55 1.12-1.32 1.712-2.313C11.354 7.847 11.8 6.9 12.1 6H2a.968.968 0 0 1-.712-.287A.968.968 0 0 1 1 5a.97.97 0 0 1 .288-.713A.968.968 0 0 1 2 4h6V3a.97.97 0 0 1 .287-.712A.968.968 0 0 1 9 2a.97.97 0 0 1 .713.288A.968.968 0 0 1 10 3v1h6a.97.97 0 0 1 .712.287c.192.192.288.43.288.713s-.096.52-.288.713A.968.968 0 0 1 16 6h-1.9c-.35 1.2-.875 2.433-1.575 3.7-.7 1.267-1.392 2.233-2.075 2.9l2.4 2.45-.75 2.05-3.05-3.125ZM15.7 17.2h3.6l-1.8-5.1-1.8 5.1Z"/>
  </g>
</svg>
