<svg width="24" height="24" viewBox="0 0 24 24" fill="none" xmlns="http://www.w3.org/2000/svg">
<g clip-path="url(#clip0_331_21)">
<mask id="mask0_331_21" style="mask-type:alpha" maskUnits="userSpaceOnUse" x="0" y="0" width="24" height="24">
<path d="M24 0H0V24H24V0Z" fill="#D9D9D9"/>
</mask>
<g mask="url(#mask0_331_21)">
<path d="M19 21H5C4.45 21 3.97917 20.8042 3.5875 20.4125C3.19583 20.0208 3 19.55 3 19V5C3 4.45 3.19583 3.97917 3.5875 3.5875C3.97917 3.19583 4.45 3 5 3H19C19.55 3 20.0208 3.19583 20.4125 3.5875C20.8042 3.97917 21 4.45 21 5V19C21 19.55 20.8042 20.0208 20.4125 20.4125C20.0208 20.8042 19.55 21 19 21ZM5 8H19V5H5V8ZM7.5 10H5V19H7.5V10ZM16.5 10V19H19V10H16.5ZM14.5 10H9.5V19H14.5V10Z" fill="#FFD728"/>
</g>
</g>
<defs>
<clipPath id="clip0_331_21">
<rect width="24" height="24" fill="white"/>
</clipPath>
</defs>
</svg>
