<svg xmlns="http://www.w3.org/2000/svg" width="24" height="24" fill="none" viewBox="0 0 24 24">
  <mask id="a" width="24" height="24" x="0" y="0" maskUnits="userSpaceOnUse" style="mask-type:alpha">
    <path fill="#D9D9D9" d="M0 0h24v24H0z"/>
  </mask>
  <g mask="url(#a)">
    <path fill="#fff" d="M12 16c1.25 0 2.313-.438 3.188-1.313.875-.874 1.312-1.937 1.312-3.187 0-1.25-.437-2.313-1.312-3.188C14.313 7.439 13.25 7 12 7c-1.25 0-2.312.438-3.187 1.313C7.938 9.187 7.5 10.25 7.5 11.5c0 1.25.438 2.313 1.313 3.188C9.688 15.562 10.75 16 12 16Zm0-1.8c-.75 0-1.387-.262-1.912-.787A2.604 2.604 0 0 1 9.3 11.5c0-.75.263-1.387.788-1.912A2.604 2.604 0 0 1 12 8.8c.75 0 1.388.262 1.913.787.525.526.787 1.163.787 1.913s-.262 1.387-.787 1.912A2.604 2.604 0 0 1 12 14.2Zm0 4.8c-2.233 0-4.27-.6-6.112-1.8-1.842-1.2-3.296-2.783-4.363-4.75a1.907 1.907 0 0 1-.187-1.438c.042-.158.104-.312.187-.462C2.592 8.583 4.046 7 5.888 5.8 7.73 4.6 9.768 4 12 4c2.234 0 4.271.6 6.113 1.8 1.842 1.2 3.296 2.783 4.362 4.75a1.906 1.906 0 0 1 .188 1.438 2 2 0 0 1-.188.462c-1.066 1.967-2.52 3.55-4.362 4.75C16.27 18.4 14.233 19 12 19Zm0-2a9.544 9.544 0 0 0 5.188-1.488A9.773 9.773 0 0 0 20.8 11.5a9.773 9.773 0 0 0-3.612-4.013A9.545 9.545 0 0 0 12 6a9.545 9.545 0 0 0-5.187 1.487A9.773 9.773 0 0 0 3.2 11.5a9.773 9.773 0 0 0 3.613 4.012A9.544 9.544 0 0 0 12 17Z"/>
  </g>
</svg>
